<svg width="1291" height="575" viewBox="0 0 1291 575" fill="none" xmlns="http://www.w3.org/2000/svg">
<style>text {font-family: system-ui, -apple-system, BlinkMacSystemFont, 'Segoe UI', Roboto, Oxygen, Ubuntu, Cantarell, 'Open Sans', 'Helvetica Neue', sans-serif;}</style>
<rect width="1291" height="575" fill="white"/>
<line x1="104.373" y1="60.5" x2="104.373" y2="568.5" stroke="#D4D4D4" stroke-linecap="round" stroke-dasharray="5 5"/>
<line x1="44.373" y1="60.5" x2="44.373" y2="567.5" stroke="#D4D4D4" stroke-linecap="round" stroke-dasharray="5 5"/>
<line x1="164.373" y1="60.5" x2="164.373" y2="568.5" stroke="#D4D4D4" stroke-linecap="round" stroke-dasharray="5 5"/>
<line x1="224.373" y1="60.5" x2="224.373" y2="568.5" stroke="#D4D4D4" stroke-linecap="round" stroke-dasharray="5 5"/>
<line x1="284.373" y1="60.5" x2="284.373" y2="568.5" stroke="#D4D4D4" stroke-linecap="round" stroke-dasharray="5 5"/>
<line x1="344.373" y1="60.5" x2="344.373" y2="568.5" stroke="#D4D4D4" stroke-linecap="round" stroke-dasharray="5 5"/>
<line x1="404.373" y1="60.5" x2="404.373" y2="568.5" stroke="#D4D4D4" stroke-linecap="round" stroke-dasharray="5 5"/>
<line x1="464.373" y1="60.5" x2="464.373" y2="567.5" stroke="#D4D4D4" stroke-linecap="round" stroke-dasharray="5 5"/>
<line x1="524.373" y1="60.5" x2="524.373" y2="567.5" stroke="#D4D4D4" stroke-linecap="round" stroke-dasharray="5 5"/>
<line x1="584.373" y1="60.5" x2="584.373" y2="568.5" stroke="#D4D4D4" stroke-linecap="round" stroke-dasharray="5 5"/>
<line x1="644.373" y1="60.5" x2="644.373" y2="567.5" stroke="#D4D4D4" stroke-linecap="round" stroke-dasharray="5 5"/>
<line x1="704.5" y1="59.5" x2="704.5" y2="567.5" stroke="#D4D4D4" stroke-linecap="round" stroke-dasharray="5 5"/>
<line x1="764.373" y1="60.5" x2="764.373" y2="568.5" stroke="#D4D4D4" stroke-linecap="round" stroke-dasharray="5 5"/>
<line x1="824.373" y1="60.5" x2="824.373" y2="568.5" stroke="#D4D4D4" stroke-linecap="round" stroke-dasharray="5 5"/>
<line x1="884.373" y1="60.5" x2="884.373" y2="568.5" stroke="#D4D4D4" stroke-linecap="round" stroke-dasharray="5 5"/>
<line x1="944.373" y1="60.5" x2="944.373" y2="568.5" stroke="#D4D4D4" stroke-linecap="round" stroke-dasharray="5 5"/>
<line x1="1004.37" y1="60.5" x2="1004.37" y2="568.5" stroke="#D4D4D4" stroke-linecap="round" stroke-dasharray="5 5"/>
<line x1="1064.37" y1="60.5" x2="1064.37" y2="568.5" stroke="#D4D4D4" stroke-linecap="round" stroke-dasharray="5 5"/>
<line x1="1124.37" y1="60.5" x2="1124.37" y2="568.5" stroke="#D4D4D4" stroke-linecap="round" stroke-dasharray="5 5"/>
<line x1="1184.37" y1="60.5" x2="1184.37" y2="568.5" stroke="#D4D4D4" stroke-linecap="round" stroke-dasharray="5 5"/>
<line x1="1244.37" y1="60.5" x2="1244.37" y2="567.5" stroke="#D4D4D4" stroke-linecap="round" stroke-dasharray="5 5"/>
<text fill="#141414" xml:space="preserve" style="white-space: pre" font-size="11" font-weight="500" letter-spacing="0em"><tspan x="33.064" y="44.5">Nov</tspan></text>
<text fill="#141414" xml:space="preserve" style="white-space: pre" font-size="11" font-weight="500" letter-spacing="0em"><tspan x="94.0469" y="44.5">Jan</tspan></text>
<text fill="#141414" xml:space="preserve" style="white-space: pre" font-size="11" font-weight="500" letter-spacing="0em"><tspan x="89.293" y="16.5">2025</tspan></text>
<text fill="#141414" xml:space="preserve" style="white-space: pre" font-size="11" font-weight="500" letter-spacing="0em"><tspan x="450.207" y="16.5">2026</tspan></text>
<text fill="#141414" xml:space="preserve" style="white-space: pre" font-size="11" font-weight="500" letter-spacing="0em"><tspan x="812.019" y="16.5">2027</tspan></text>
<text fill="#141414" xml:space="preserve" style="white-space: pre" font-size="11" font-weight="500" letter-spacing="0em"><tspan x="1169.23" y="16.5">2028</tspan></text>
<text fill="#141414" xml:space="preserve" style="white-space: pre" font-size="11" font-weight="500" letter-spacing="0em"><tspan x="454.047" y="44.5">Jan</tspan></text>
<text fill="#141414" xml:space="preserve" style="white-space: pre" font-size="11" font-weight="500" letter-spacing="0em"><tspan x="815.047" y="44.5">Jan</tspan></text>
<text fill="#141414" xml:space="preserve" style="white-space: pre" font-size="11" font-weight="500" letter-spacing="0em"><tspan x="1174.05" y="44.5">Jan</tspan></text>
<text fill="#141414" xml:space="preserve" style="white-space: pre" font-size="11" font-weight="500" letter-spacing="0em"><tspan x="153.322" y="44.5">Mar</tspan></text>
<text fill="#141414" xml:space="preserve" style="white-space: pre" font-size="11" font-weight="500" letter-spacing="0em"><tspan x="873.322" y="44.5">Mar</tspan></text>
<text fill="#141414" xml:space="preserve" style="white-space: pre" font-size="11" font-weight="500" letter-spacing="0em"><tspan x="513.322" y="44.5">Mar</tspan></text>
<text fill="#141414" xml:space="preserve" style="white-space: pre" font-size="11" font-weight="500" letter-spacing="0em"><tspan x="1233.32" y="44.5">Mar</tspan></text>
<text fill="#141414" xml:space="preserve" style="white-space: pre" font-size="11" font-weight="500" letter-spacing="0em"><tspan x="212.425" y="44.5">May</tspan></text>
<text fill="#141414" xml:space="preserve" style="white-space: pre" font-size="11" font-weight="500" letter-spacing="0em"><tspan x="572.425" y="44.5">May</tspan></text>
<text fill="#141414" xml:space="preserve" style="white-space: pre" font-size="11" font-weight="500" letter-spacing="0em"><tspan x="932.425" y="44.5">May</tspan></text>
<text fill="#141414" xml:space="preserve" style="white-space: pre" font-size="11" font-weight="500" letter-spacing="0em"><tspan x="276.325" y="44.5">Jul</tspan></text>
<text fill="#141414" xml:space="preserve" style="white-space: pre" font-size="11" font-weight="500" letter-spacing="0em"><tspan x="636.325" y="44.5">Jul</tspan></text>
<text fill="#141414" xml:space="preserve" style="white-space: pre" font-size="11" font-weight="500" letter-spacing="0em"><tspan x="996.325" y="44.5">Jul</tspan></text>
<text fill="#141414" xml:space="preserve" style="white-space: pre" font-size="11" font-weight="500" letter-spacing="0em"><tspan x="333.338" y="44.5">Sep</tspan></text>
<text fill="#141414" xml:space="preserve" style="white-space: pre" font-size="11" font-weight="500" letter-spacing="0em"><tspan x="693.338" y="44.5">Sep</tspan></text>
<text fill="#141414" xml:space="preserve" style="white-space: pre" font-size="11" font-weight="500" letter-spacing="0em"><tspan x="753.064" y="44.5">Nov</tspan></text>
<text fill="#141414" xml:space="preserve" style="white-space: pre" font-size="11" font-weight="500" letter-spacing="0em"><tspan x="1053.34" y="44.5">Sep</tspan></text>
<text fill="#141414" xml:space="preserve" style="white-space: pre" font-size="11" font-weight="500" letter-spacing="0em"><tspan x="393.064" y="44.5">Nov</tspan></text>
<text fill="#141414" xml:space="preserve" style="white-space: pre" font-size="11" font-weight="500" letter-spacing="0em"><tspan x="1114.06" y="44.5">Nov</tspan></text>
<g opacity="0.8">
<path opacity="0.8" d="M1064 499H1239C1241.76 499 1244 501.239 1244 504V544C1244 546.761 1241.76 549 1239 549H1064V499Z" fill="#EB8A9A"/>
<text fill="#424242" xml:space="preserve" style="white-space: pre" font-size="12" font-weight="500" letter-spacing="0em"><tspan x="1118.99" y="528.364">Deprecation</tspan></text>
<path d="M524 499H1064V549H524V499Z" fill="#D9D9D9"/>
<text fill="#424242" xml:space="preserve" style="white-space: pre" font-size="12" font-weight="500" letter-spacing="0em"><tspan x="756.887" y="528.364">Maintenance</tspan></text>
<path opacity="0.8" d="M464 504C464 501.239 466.239 499 469 499H524V549H469C466.239 549 464 546.761 464 544V504Z" fill="#1FC47A"/>
<text fill="white" xml:space="preserve" style="white-space: pre" font-size="12" font-weight="500" letter-spacing="0em"><tspan x="472.191" y="528.364">Current</tspan></text>
<text fill="#424242" xml:space="preserve" style="white-space: pre" font-size="11" font-weight="500" letter-spacing="0em"><tspan x="410.011" y="528.5">2026-01</tspan></text>
</g>
<g opacity="0.8">
<path opacity="0.8" d="M1004 429H1179C1181.76 429 1184 431.239 1184 434V474C1184 476.761 1181.76 479 1179 479H1004V429Z" fill="#EB8A9A"/>
<text fill="#424242" xml:space="preserve" style="white-space: pre" font-size="12" font-weight="500" letter-spacing="0em"><tspan x="1058.99" y="458.364">Deprecation</tspan></text>
<path d="M464 429H1004V479H464V429Z" fill="#D9D9D9"/>
<text fill="#424242" xml:space="preserve" style="white-space: pre" font-size="12" font-weight="500" letter-spacing="0em"><tspan x="696.887" y="458.364">Maintenance</tspan></text>
<path opacity="0.8" d="M404 434C404 431.239 406.239 429 409 429H464V479H409C406.239 479 404 476.761 404 474V434Z" fill="#1FC47A"/>
<text fill="white" xml:space="preserve" style="white-space: pre" font-size="12" font-weight="500" letter-spacing="0em"><tspan x="412.191" y="458.364">Current</tspan></text>
<text fill="#424242" xml:space="preserve" style="white-space: pre" font-size="11" font-weight="500" letter-spacing="0em"><tspan x="352.048" y="458.5">2025-11</tspan></text>
</g>
<g opacity="0.8">
<path opacity="0.8" d="M944 359H1119C1121.76 359 1124 361.239 1124 364V404C1124 406.761 1121.76 409 1119 409H944V359Z" fill="#EB8A9A"/>
<text fill="#424242" xml:space="preserve" style="white-space: pre" font-size="12" font-weight="500" letter-spacing="0em"><tspan x="998.99" y="388.364">Deprecation</tspan></text>
<path d="M404 359H944V409H404V359Z" fill="#D9D9D9"/>
<text fill="#424242" xml:space="preserve" style="white-space: pre" font-size="12" font-weight="500" letter-spacing="0em"><tspan x="636.887" y="388.364">Maintenance</tspan></text>
<path opacity="0.8" d="M344 364C344 361.239 346.239 359 349 359H404V409H349C346.239 409 344 406.761 344 404V364Z" fill="#1FC47A"/>
<text fill="white" xml:space="preserve" style="white-space: pre" font-size="12" font-weight="500" letter-spacing="0em"><tspan x="352.191" y="389.364">Current</tspan></text>
<text fill="#424242" xml:space="preserve" style="white-space: pre" font-size="11" font-weight="500" letter-spacing="0em"><tspan x="289.2" y="388.5">2025-09</tspan></text>
</g>
<g opacity="0.8">
<path opacity="0.8" d="M884 289H1059C1061.76 289 1064 291.239 1064 294V334C1064 336.761 1061.76 339 1059 339H884V289Z" fill="#EB8A9A"/>
<text fill="#424242" xml:space="preserve" style="white-space: pre" font-size="12" font-weight="500" letter-spacing="0em"><tspan x="938.99" y="318.364">Deprecation</tspan></text>
<path d="M344 289H884V339H344V289Z" fill="#D9D9D9"/>
<text fill="#424242" xml:space="preserve" style="white-space: pre" font-size="12" font-weight="500" letter-spacing="0em"><tspan x="576.887" y="318.364">Maintenance</tspan></text>
<path opacity="0.8" d="M284 294C284 291.239 286.239 289 289 289H344V339H289C286.239 339 284 336.761 284 334V294Z" fill="#1FC47A"/>
<text fill="white" xml:space="preserve" style="white-space: pre" font-size="12" font-weight="500" letter-spacing="0em"><tspan x="292.191" y="318.864">Current</tspan></text>
<text fill="#424242" xml:space="preserve" style="white-space: pre" font-size="11" font-weight="500" letter-spacing="0em"><tspan x="231.119" y="318.5">2025-07</tspan></text>
</g>
<g opacity="0.8">
<path opacity="0.8" d="M824 219H999C1001.76 219 1004 221.239 1004 224V264C1004 266.761 1001.76 269 999 269H824V219Z" fill="#EB8A9A"/>
<text fill="#424242" xml:space="preserve" style="white-space: pre" font-size="12" font-weight="500" letter-spacing="0em"><tspan x="879.49" y="248.364">Deprecation</tspan></text>
<path d="M284 219H824V269H284V219Z" fill="#D9D9D9"/>
<text fill="#424242" xml:space="preserve" style="white-space: pre" font-size="12" font-weight="500" letter-spacing="0em"><tspan x="516.887" y="248.364">Maintenance</tspan></text>
<path opacity="0.8" d="M224 224C224 221.239 226.239 219 229 219H284V269H229C226.239 269 224 266.761 224 264V224Z" fill="#1FC47A"/>
<text fill="white" xml:space="preserve" style="white-space: pre" font-size="12" font-weight="500" letter-spacing="0em"><tspan x="232.191" y="248.364">Current</tspan></text>
<text fill="#424242" xml:space="preserve" style="white-space: pre" font-size="11" font-weight="500" letter-spacing="0em"><tspan x="172.286" y="248.5">2025-05</tspan></text>
</g>
<g opacity="0.8">
<path d="M224 149H764V199H224V149Z" fill="#D9D9D9"/>
<text fill="#424242" xml:space="preserve" style="white-space: pre" font-size="12" font-weight="500" letter-spacing="0em"><tspan x="456.887" y="178.364">Maintenance</tspan></text>
<path opacity="0.8" d="M764 149H939C941.761 149 944 151.239 944 154V194C944 196.761 941.761 199 939 199H764V149Z" fill="#EB8A9A"/>
<text fill="#424242" xml:space="preserve" style="white-space: pre" font-size="12" font-weight="500" letter-spacing="0em"><tspan x="818.99" y="178.364">Deprecation</tspan></text>
<path opacity="0.8" d="M164 154C164 151.239 166.239 149 169 149H224V199H169C166.239 199 164 196.761 164 194V154Z" fill="#1FC47A"/>
<text fill="white" xml:space="preserve" style="white-space: pre" font-size="12" font-weight="500" letter-spacing="0em"><tspan x="172.191" y="178.364">Current</tspan></text>
<text fill="#424242" xml:space="preserve" style="white-space: pre" font-size="11" font-weight="500" letter-spacing="0em"><tspan x="112.152" y="177.5">2025-03</tspan></text>
</g>
<g opacity="0.8">
<path opacity="0.8" d="M704 79H879C881.761 79 884 81.2386 884 84V124C884 126.761 881.761 129 879 129H704V79Z" fill="#EB8A9A"/>
<text fill="#424242" xml:space="preserve" style="white-space: pre" font-size="12" font-weight="500" letter-spacing="0em"><tspan x="758.99" y="108.364">Deprecation</tspan></text>
<path d="M164 79H704V129H164V79Z" fill="#D9D9D9"/>
<text fill="#424242" xml:space="preserve" style="white-space: pre" font-size="12" font-weight="500" letter-spacing="0em"><tspan x="387.887" y="108.364">Maintenance</tspan></text>
<path opacity="0.8" d="M44 79H164V129H44V79Z" fill="#1FC47A"/>
<text fill="white" xml:space="preserve" style="white-space: pre" font-size="12" font-weight="500" letter-spacing="0em"><tspan x="82.1914" y="108.364">Current</tspan></text>
<text fill="#424242" xml:space="preserve" style="white-space: pre" font-size="11" font-weight="500" letter-spacing="0em"><tspan x="20.2852" y="107.5">v1</tspan></text>
</g>
</svg>
