<svg width="317" height="101" viewBox="0 0 317 101" fill="none" xmlns="http://www.w3.org/2000/svg">
<rect width="100" height="100" transform="translate(0 0.5)" fill="#1FC47A"/>
<path d="M44.4995 18.73H33.8795V82.27H44.4995V18.73Z" fill="white"/>
<path d="M66.1205 37.45H55.5005V82.27H66.1205V37.45ZM66.1205 28.63V18.73H55.4105V28.63H66.1205Z" fill="white"/>
<path d="M125.85 81.5H144.66C157.62 81.5 165.27 79.61 171.03 73.85C176.43 68.45 179.22 59.45 179.22 49.19C179.22 35.96 175.08 25.52 166.35 21.2C161.49 18.77 156.63 17.96 145.47 17.96H125.85V81.5ZM137.28 71.78V27.68H146.91C155.55 27.68 159.42 29.48 162.39 32.72C165.81 36.5 167.16 42.26 167.16 49.1C167.16 56.84 165.99 62.51 162.66 66.29C159.33 69.98 153.93 71.78 145.38 71.78H137.28ZM228.11 59.54C228.11 44.33 220.1 35.42 206.78 35.42C192.92 35.42 184.19 44.15 184.19 59C184.19 73.94 192.11 82.76 206.15 82.76C219.29 82.76 228.11 74.48 228.11 59.54ZM217.49 59.27C217.49 69.35 212.81 73.94 206.24 73.94C199.67 73.94 194.99 68.9 194.99 58.73C194.99 49.37 199.85 44.24 206.51 44.24C213.17 44.24 217.49 49.28 217.49 59.27ZM273.079 48.92C271.009 40.91 264.889 35.42 255.169 35.42C241.759 35.42 233.299 44.33 233.299 59C233.299 73.76 241.579 82.76 254.629 82.76C264.799 82.76 270.739 77.36 273.349 69.89L263.899 66.65C262.819 71.42 259.939 73.94 255.169 73.94C248.239 73.94 244.099 68.72 244.099 58.82C244.099 48.83 248.779 44.24 254.899 44.24C259.129 44.24 262.369 46.22 263.629 52.16L273.079 48.92ZM275.798 72.68C279.578 78.35 285.788 82.76 294.968 82.76C306.128 82.76 313.058 76.73 313.058 68.45C313.058 61.25 308.558 57.56 300.638 55.04L295.868 53.6C290.108 51.8 288.668 50.54 288.668 47.84C288.668 45.23 290.828 43.43 295.328 43.43C299.648 43.43 303.068 45.77 305.318 49.73L313.148 44.42C309.188 38.12 302.618 35.42 295.508 35.42C284.438 35.42 278.138 41.9 278.138 48.92C278.138 55.76 282.548 59.81 289.478 61.97L294.248 63.5C300.998 65.66 302.528 66.92 302.528 69.89C302.528 72.59 300.008 74.57 295.418 74.57C290.468 74.57 286.328 71.87 283.988 67.28L275.798 72.68Z" fill="black"/>
</svg>
