<svg width="1242" height="425" viewBox="0 0 1242 425" fill="none" xmlns="http://www.w3.org/2000/svg">
<g clip-path="url(#clip0_1442_101)">
<g clip-path="url(#clip1_1442_101)">
<path d="M0 100C0 44.7715 44.7715 0 100 0H325C380.228 0 425 44.7715 425 100V325C425 380.228 380.228 425 325 425H100C44.7715 425 0 380.228 0 325V100Z" fill="#1FC47A"/>
<rect x="100" y="100" width="100" height="225" fill="white"/>
<rect x="225" y="225" width="100" height="100" fill="white"/>
<rect x="225" y="100" width="100" height="100" rx="50" fill="white"/>
</g>
<path d="M599.455 317H525.52V98.8182H600.946C622.608 98.8182 641.216 103.186 656.77 111.922C672.395 120.587 684.398 133.051 692.778 149.315C701.159 165.58 705.349 185.04 705.349 207.696C705.349 230.423 701.124 249.955 692.672 266.29C684.291 282.625 672.182 295.161 656.344 303.896C640.577 312.632 621.614 317 599.455 317ZM565.044 282.803H597.537C612.736 282.803 625.413 280.033 635.57 274.493C645.726 268.882 653.361 260.537 658.474 249.457C663.588 238.307 666.145 224.386 666.145 207.696C666.145 191.006 663.588 177.156 658.474 166.148C653.361 155.068 645.797 146.794 635.783 141.325C625.839 135.786 613.482 133.016 598.709 133.016H565.044V282.803ZM812.576 320.196C796.596 320.196 782.746 316.68 771.028 309.649C759.309 302.618 750.218 292.781 743.755 280.139C737.363 267.497 734.167 252.724 734.167 235.821C734.167 218.918 737.363 204.109 743.755 191.396C750.218 178.683 759.309 168.811 771.028 161.78C782.746 154.749 796.596 151.233 812.576 151.233C828.556 151.233 842.406 154.749 854.124 161.78C865.843 168.811 874.898 178.683 881.29 191.396C887.754 204.109 890.985 218.918 890.985 235.821C890.985 252.724 887.754 267.497 881.29 280.139C874.898 292.781 865.843 302.618 854.124 309.649C842.406 316.68 828.556 320.196 812.576 320.196ZM812.789 289.301C821.454 289.301 828.698 286.922 834.522 282.163C840.346 277.334 844.678 270.871 847.519 262.774C850.431 254.678 851.887 245.658 851.887 235.714C851.887 225.7 850.431 216.645 847.519 208.548C844.678 200.381 840.346 193.882 834.522 189.053C828.698 184.223 821.454 181.808 812.789 181.808C803.911 181.808 796.525 184.223 790.63 189.053C784.806 193.882 780.438 200.381 777.526 208.548C774.685 216.645 773.265 225.7 773.265 235.714C773.265 245.658 774.685 254.678 777.526 262.774C780.438 270.871 784.806 277.334 790.63 282.163C796.525 286.922 803.911 289.301 812.789 289.301ZM995.096 320.196C978.76 320.196 964.733 316.609 953.015 309.436C941.367 302.263 932.382 292.355 926.061 279.713C919.811 267 916.686 252.369 916.686 235.821C916.686 219.202 919.882 204.536 926.275 191.822C932.667 179.038 941.686 169.095 953.334 161.993C965.053 154.82 978.902 151.233 994.882 151.233C1008.16 151.233 1019.92 153.683 1030.15 158.584C1040.44 163.413 1048.65 170.267 1054.75 179.145C1060.86 187.952 1064.34 198.25 1065.19 210.04H1028.33C1026.84 202.156 1023.29 195.587 1017.68 190.331C1012.14 185.004 1004.72 182.341 995.415 182.341C987.532 182.341 980.607 184.472 974.641 188.733C968.675 192.923 964.023 198.96 960.685 206.844C957.418 214.727 955.784 224.173 955.784 235.182C955.784 246.332 957.418 255.92 960.685 263.946C963.952 271.901 968.533 278.044 974.428 282.376C980.394 286.638 987.39 288.768 995.415 288.768C1001.1 288.768 1006.18 287.703 1010.65 285.572C1015.19 283.371 1018.99 280.21 1022.05 276.091C1025.1 271.972 1027.2 266.964 1028.33 261.07H1065.19C1064.27 272.646 1060.86 282.909 1054.97 291.858C1049.07 300.736 1041.05 307.696 1030.89 312.739C1020.73 317.71 1008.8 320.196 995.096 320.196ZM1226.19 196.616L1191.04 200.452C1190.04 196.901 1188.3 193.562 1185.82 190.438C1183.4 187.312 1180.14 184.791 1176.02 182.874C1171.9 180.956 1166.86 179.997 1160.89 179.997C1152.86 179.997 1146.12 181.737 1140.65 185.217C1135.25 188.697 1132.59 193.207 1132.66 198.747C1132.59 203.506 1134.33 207.376 1137.88 210.359C1141.5 213.342 1147.47 215.793 1155.78 217.71L1183.69 223.676C1199.17 227.014 1210.68 232.305 1218.2 239.55C1225.8 246.794 1229.64 256.276 1229.71 267.994C1229.64 278.293 1226.62 287.384 1220.65 295.267C1214.76 303.08 1206.56 309.187 1196.05 313.591C1185.53 317.994 1173.46 320.196 1159.82 320.196C1139.8 320.196 1123.67 316.006 1111.46 307.625C1099.24 299.173 1091.96 287.419 1089.62 272.362L1127.22 268.74C1128.93 276.126 1132.55 281.702 1138.09 285.466C1143.63 289.23 1150.84 291.112 1159.72 291.112C1168.88 291.112 1176.23 289.23 1181.77 285.466C1187.38 281.702 1190.19 277.05 1190.19 271.51C1190.19 266.822 1188.38 262.952 1184.75 259.898C1181.2 256.844 1175.66 254.5 1168.13 252.866L1140.22 247.007C1124.53 243.74 1112.91 238.236 1105.38 230.494C1097.86 222.682 1094.13 212.81 1094.2 200.878C1094.13 190.793 1096.86 182.057 1102.4 174.67C1108.01 167.213 1115.79 161.46 1125.73 157.412C1135.75 153.293 1147.29 151.233 1160.36 151.233C1179.53 151.233 1194.63 155.317 1205.63 163.484C1216.71 171.652 1223.57 182.696 1226.19 196.616Z" fill="#141414"/>
</g>
<defs>
<clipPath id="clip0_1442_101">
<rect width="1242" height="425" fill="white"/>
</clipPath>
<clipPath id="clip1_1442_101">
<rect width="425" height="425" fill="white"/>
</clipPath>
</defs>
</svg>
