<svg xmlns="http://www.w3.org/2000/svg" width="360" height="84" viewBox="0 0 360 84" version="1.1">
  <g stroke="none" stroke-width="1" fill="none" fill-rule="evenodd">
    <rect fill="#1FC482" x="183" y="0" width="176.8" height="83.73"/>
    <path d="M20.99 64.11L30.12 64.11 30.12 25.75 20.99 25.75 20.99 64.11 20.99 64.11ZM20.99 19.76L30.12 19.76 30.12 10.48 20.99 10.48 20.99 19.76 20.99 19.76ZM53.68 52.15L45.7 25.75 36.19 25.75 48.62 64.11 58.52 64.11 71.1 25.75 61.51 25.75 53.68 52.15 53.68 52.15ZM0.27 64.11L9.55 64.11 9.55 9.94 0.27 9.94 0.27 64.11 0.27 64.11ZM120.14 24.6C117.14 24.6 113.62 25.59 111.31 27.28 109.7 28.36 108.78 29.59 108.32 30.27L108.32 25.75 99.04 25.75 99.04 64.11 108.32 64.11 108.32 47.46C108.32 44.62 108.32 40.71 109.78 37.87 111.08 35.34 113.84 33.57 116.84 33.57 119.83 33.57 122.29 35.34 123.13 38.72 123.44 39.79 123.44 41.71 123.44 44.54L123.44 64.11 132.57 64.11 132.57 41.55C132.57 36.57 132.57 32.42 130.19 29.2 128.27 26.59 124.51 24.6 120.14 24.6L120.14 24.6ZM168.1 25.75L168.1 29.74C167.03 28.35 164.11 24.6 157.21 24.6 150.14 24.6 139.94 29.28 139.94 43.55 139.94 55.75 147.53 61.89 156.59 61.89 162.12 61.89 166.11 59.58 168.1 57.75 168.1 62.42 168.1 64.65 166.72 66.57 165.88 67.8 163.81 69.63 159.12 69.63 153.6 69.63 151.99 67.11 151.29 64.88L141.17 64.88C142.47 71.02 145.16 76.93 158.81 76.93 167.87 76.93 172.63 73.93 174.78 71.09 177.16 67.87 177.16 64.8 177.24 57.21L177.24 25.75 168.1 25.75 168.1 25.75ZM158.89 53.45C153.44 53.45 149.38 49.99 149.38 43.32 149.38 35.95 154.13 32.81 158.82 32.81 165.03 32.81 168.41 37.49 168.33 43.7 168.25 50.76 163.81 53.45 158.89 53.45L158.89 53.45ZM78.47 64.11L87.6 64.11 87.6 25.75 78.47 25.75 78.47 64.11 78.47 64.11ZM78.47 19.76L87.6 19.76 87.6 10.48 78.47 10.48 78.47 19.76 78.47 19.76Z" fill="#3A2F3C"/>
    <path d="M215.61 28.89C212.69 25.67 209.08 24.6 205.32 24.6 194.35 24.6 187.9 34.34 187.9 45.77 187.9 58.43 195.81 65.27 204.94 65.27 208.93 65.27 212.77 63.88 215.61 60.43L215.61 64.11 224.74 64.11 224.74 9.94 215.61 9.94 215.61 28.89 215.61 28.89ZM206.55 56.98C197.57 56.98 197.5 45.46 197.5 44.78 197.5 38.71 200.49 33.11 206.7 33.11 209.77 33.11 212.07 34.57 213.46 36.65 215.14 39.17 215.45 42.7 215.53 45.16 215.61 53.45 211.31 56.98 206.55 56.98L206.55 56.98ZM349.52 44.01C347.07 42.09 344.84 41.71 336.86 40.25 331.95 39.4 329.11 38.64 329.11 35.88 329.11 33.88 331.11 31.96 335.48 31.96 342.23 31.96 344.84 35.72 345.92 37.79L352.44 31.73C351.67 30.81 350.44 29.5 348.52 28.28 345.92 26.44 341.7 24.6 335.86 24.6 325.35 24.6 319.44 30.58 319.44 37.1 319.44 40.55 321.13 45.85 330.26 48 331.64 48.38 337.93 49.53 339.24 49.84 340.47 50.07 343.23 50.69 343.23 53.14 343.23 55.06 340.93 57.66 335.63 57.66 330.34 57.66 326.88 55.59 324.58 52.75L317.75 58.43C322.58 63.11 329.34 65.26 336.17 65.26 348.06 65.26 353.43 58.13 353.43 52.14 353.43 48.92 351.9 45.85 349.52 44.01L349.52 44.01ZM297.19 56.67C291.12 56.67 287.51 51.6 287.51 44.7 287.51 37.02 291.73 32.81 297.03 32.81 302.33 32.81 305.01 36.8 305.7 39.33L313.91 35.49C311.92 31.04 307.01 24.6 297.34 24.6 286.44 24.6 278 33.19 278 44.93 278 57.05 286.36 65.26 297.03 65.26 303.71 65.26 311.3 61.58 314.3 53.29L306.39 49.15C305.24 52.22 303.01 56.67 297.19 56.67L297.19 56.67ZM252.14 24.6C240.7 24.6 232.57 33.04 232.57 44.78 232.57 56.52 240.55 65.27 252.52 65.27 264.11 65.27 272.01 56.75 272.01 44.78 271.93 32.04 262.81 24.6 252.14 24.6L252.14 24.6ZM252.52 56.83C247 56.83 242.16 52.45 242.16 44.54 242.16 37.49 246.3 32.88 252.06 32.88 258.5 32.88 262.19 38.25 262.34 44.62 262.57 50.99 259.2 56.83 252.52 56.83L252.52 56.83Z" fill="#FFFFFF"/>
  </g>
</svg>
